<?xml version="1.0" encoding="UTF-8" standalone="no"?>
<!-- Created with Inkscape (http://www.inkscape.org/) -->

<svg
   xmlns:dc="http://purl.org/dc/elements/1.1/"
   xmlns:cc="http://creativecommons.org/ns#"
   xmlns:rdf="http://www.w3.org/1999/02/22-rdf-syntax-ns#"
   xmlns:svg="http://www.w3.org/2000/svg"
   xmlns="http://www.w3.org/2000/svg"
   xmlns:sodipodi="http://sodipodi.sourceforge.net/DTD/sodipodi-0.dtd"
   xmlns:inkscape="http://www.inkscape.org/namespaces/inkscape"
   width="210mm"
   height="297mm"
   viewBox="0 0 210 297"
   version="1.1"
   id="svg1565"
   inkscape:version="0.92.4 (5da689c313, 2019-01-14)"
   sodipodi:docname="button_holder.svg">
  <defs
     id="defs1559" />
  <sodipodi:namedview
     id="base"
     pagecolor="#ffffff"
     bordercolor="#666666"
     borderopacity="1.0"
     inkscape:pageopacity="0.0"
     inkscape:pageshadow="2"
     inkscape:zoom="1.1235628"
     inkscape:cx="181.62166"
     inkscape:cy="421.55482"
     inkscape:document-units="mm"
     inkscape:current-layer="layer1"
     showgrid="false"
     showguides="false"
     inkscape:snap-object-midpoints="true"
     inkscape:window-width="2560"
     inkscape:window-height="1311"
     inkscape:window-x="0"
     inkscape:window-y="55"
     inkscape:window-maximized="1" />
  <metadata
     id="metadata1562">
    <rdf:RDF>
      <cc:Work
         rdf:about="">
        <dc:format>image/svg+xml</dc:format>
        <dc:type
           rdf:resource="http://purl.org/dc/dcmitype/StillImage" />
        <dc:title></dc:title>
      </cc:Work>
    </rdf:RDF>
  </metadata>
  <g
     inkscape:label="Layer 1"
     inkscape:groupmode="layer"
     id="layer1">
    <path
       inkscape:connector-curvature="0"
       style="opacity:1;vector-effect:none;fill:none;fill-opacity:1;stroke:#ff00ff;stroke-width:0.49999997;stroke-linecap:butt;stroke-linejoin:miter;stroke-miterlimit:4;stroke-dasharray:none;stroke-dashoffset:0;stroke-opacity:1"
       d="m 55.224709,191.18577 -0.574101,-0.0452 -0.570999,-0.0751 -0.566201,-0.105 -0.559998,-0.1344 -0.552202,-0.1636 -0.5428,-0.1922 -0.532099,-0.2204 -0.5198,-0.2479 -0.5061,-0.2748 -0.491001,-0.3009 -0.474599,-0.3262 -0.456901,-0.3506 -0.437899,-0.374 -0.4178,-0.3964 -0.396399,-0.4178 -0.374002,-0.4379 -0.350599,-0.4569 -0.3262,-0.4746 -0.3009,-0.491 -0.274801,-0.5061 -0.247899,-0.5198 -0.220401,-0.5321 -0.192198,-0.5428 -0.1636,-0.5522 -0.134401,-0.56 -0.104999,-0.5662 -0.0751,-0.571 -0.0452,-0.5741 -0.01511,-0.5757 0.01511,-0.5757 0.0452,-0.5741 0.0751,-0.571 0.104999,-0.5662 0.134401,-0.56 0.1636,-0.5522 0.192198,-0.5428 0.220401,-0.5321 0.247899,-0.5198 0.274801,-0.5061 0.3009,-0.491 0.3262,-0.4746 0.350599,-0.4569 0.374002,-0.4379 0.396399,-0.4178 0.4178,-0.3964 0.437899,-0.374 0.456901,-0.3506 0.474599,-0.3262 0.491001,-0.3009 0.5061,-0.2748 0.5198,-0.2479 0.532099,-0.2204 0.5428,-0.1922 0.552202,-0.1636 0.559998,-0.1344 0.566201,-0.105 0.570999,-0.0751 0.574101,-0.0452 0.575699,-0.0151 0.575702,0.0151 0.574098,0.0452 0.571,0.0751 0.5662,0.105 0.560002,0.1344 0.552198,0.1636 0.542801,0.1922 0.532101,0.2204 0.519798,0.2479 0.5061,0.2748 0.491,0.3009 0.474599,0.3262 0.456901,0.3506 0.437902,0.374 0.417798,0.3964 0.396405,0.4178 0.374,0.4379 0.3506,0.4569 0.32619,0.4746 0.3009,0.491 0.27481,0.5061 0.2479,0.5198 0.2204,0.5321 0.1922,0.5428 0.1636,0.5522 0.1344,0.56 0.105,0.5662 0.0751,0.571 0.0452,0.5741 0.0151,0.5757 -0.0151,0.5757 -0.0452,0.5741 -0.0751,0.571 -0.105,0.5662 -0.1344,0.56 -0.1636,0.5522 -0.1922,0.5428 -0.2204,0.5321 -0.2479,0.5198 -0.27481,0.5061 -0.3009,0.491 -0.32619,0.4746 -0.3506,0.4569 -0.374,0.4379 -0.396405,0.4178 -0.417798,0.3964 -0.437902,0.374 -0.456901,0.3506 -0.474599,0.3262 -0.491,0.3009 -0.5061,0.2748 -0.519798,0.2479 -0.532101,0.2204 -0.542801,0.1922 -0.552198,0.1636 -0.560002,0.1344 -0.5662,0.105 -0.571,0.0751 -0.574098,0.0452 -0.575702,0.0151 z"
       id="path266" />
    <rect
       style="opacity:1;vector-effect:none;fill:none;fill-opacity:1;stroke:#d1107a;stroke-width:0.44485077;stroke-linecap:butt;stroke-linejoin:miter;stroke-miterlimit:4;stroke-dasharray:none;stroke-dashoffset:0;stroke-opacity:1;marker:none;paint-order:normal"
       id="rect2116"
       width="100"
       height="100"
       x="5.8004069"
       y="130.20087"
       rx="20"
       ry="20" />
    <circle
       style="opacity:1;vector-effect:none;fill:none;fill-opacity:1;stroke:#ff0000;stroke-width:0.5;stroke-linecap:butt;stroke-linejoin:miter;stroke-miterlimit:4;stroke-dasharray:none;stroke-dashoffset:0;stroke-opacity:1;marker:none;paint-order:normal"
       id="path2118"
       cx="18.300407"
       cy="142.70087"
       r="3" />
    <circle
       r="3"
       cy="142.70087"
       cx="93.300407"
       id="circle2122"
       style="opacity:1;vector-effect:none;fill:none;fill-opacity:1;stroke:#ff0000;stroke-width:0.5;stroke-linecap:butt;stroke-linejoin:miter;stroke-miterlimit:4;stroke-dasharray:none;stroke-dashoffset:0;stroke-opacity:1;marker:none;paint-order:normal" />
    <circle
       r="3"
       cy="217.70087"
       cx="18.300407"
       id="circle2126"
       style="opacity:1;vector-effect:none;fill:none;fill-opacity:1;stroke:#ff0000;stroke-width:0.5;stroke-linecap:butt;stroke-linejoin:miter;stroke-miterlimit:4;stroke-dasharray:none;stroke-dashoffset:0;stroke-opacity:1;marker:none;paint-order:normal" />
    <circle
       style="opacity:1;vector-effect:none;fill:none;fill-opacity:1;stroke:#ff0000;stroke-width:0.5;stroke-linecap:butt;stroke-linejoin:miter;stroke-miterlimit:4;stroke-dasharray:none;stroke-dashoffset:0;stroke-opacity:1;marker:none;paint-order:normal"
       id="circle2128"
       cx="93.300407"
       cy="217.70087"
       r="3" />
  </g>
</svg>
